<svg xmlns="http://www.w3.org/2000/svg" width="980" height="500" viewBox="0 0 980 500"><defs></defs><rect x="0" y="0" width="980" height="500" rx="18" fill="#F4F8F7"/><line x1="120" y1="440" x2="860" y2="440" stroke="#8A97A6" stroke-width="6" stroke-linecap="round"/><line x1="333.1" y1="322.6" x2="413.6" y2="322.6" stroke="#8A97A6" stroke-width="11.5" stroke-linecap="round"/><line x1="337.7" y1="322.6" x2="328.5" y2="237.5" stroke="#8A97A6" stroke-width="11.5" stroke-linecap="round"/><line x1="376.8" y1="327.2" x2="376.8" y2="393.9" stroke="#8A97A6" stroke-width="9.2" stroke-linecap="round"/><line x1="346.90000000000003" y1="398.5" x2="406.7" y2="398.5" stroke="#8A97A6" stroke-width="9.2" stroke-linecap="round"/><line x1="380" y1="310" x2="382.5" y2="212.5" stroke="#1F3A5F" stroke-width="11.25" stroke-linecap="round"/><circle cx="387.5" cy="180.0" r="20.0" fill="#1F3A5F"/><polyline points="382.5,212.5 415.0,255.0 465.0,252.5" fill="none" stroke="#1F3A5F" stroke-width="11.25" stroke-linecap="round" stroke-linejoin="round"/><polyline points="380,310 450.0,307.5 452.5,385.0" fill="none" stroke="#1F3A5F" stroke-width="11.25" stroke-linecap="round" stroke-linejoin="round"/><line x1="452.5" y1="385.0" x2="482.5" y2="385.0" stroke="#1F3A5F" stroke-width="11.25" stroke-linecap="round"/><line x1="470" y1="270" x2="782.0" y2="270" stroke="#8A97A6" stroke-width="13.0" stroke-linecap="round"/><line x1="771.6" y1="276.5" x2="771.6" y2="394.8" stroke="#8A97A6" stroke-width="10.4" stroke-linecap="round"/><rect x="485" y="258" width="70" height="8" rx="4" fill="#1F3A5F"/><line x1="640" y1="270" x2="640" y2="241.4" stroke="#1F3A5F" stroke-width="7.800000000000001" stroke-linecap="round"/><rect x="630.9" y="163.4" width="18.2" height="78.0" rx="5.2" fill="#1F3A5F"/><line x1="400" y1="172" x2="700" y2="172" stroke="#2A9D8F" stroke-width="3" stroke-linecap="round" stroke-dasharray="8,8"/><circle cx="160" cy="120" r="10" fill="#2A9D8F"/><circle cx="830" cy="90" r="14" fill="#D7EBE8"/><circle cx="790" cy="380" r="8" fill="#E76F51"/></svg>