<svg xmlns="http://www.w3.org/2000/svg" width="980" height="560" viewBox="0 0 980 560"><defs></defs><rect x="0" y="0" width="980" height="560" rx="18" fill="#F4F8F7"/><circle cx="340" cy="70" r="28" fill="none" stroke="#1F3A5F" stroke-width="7"/><line x1="340" y1="98" x2="340" y2="114" stroke="#1F3A5F" stroke-width="7" stroke-linecap="round"/><path d="M 288 126 L 392 126 L 380 250 L 300 250 Z" fill="none" stroke="#1F3A5F" stroke-width="7" stroke-linecap="round" stroke-linejoin="round"/><polyline points="288,130 266,210 262,272" fill="none" stroke="#1F3A5F" stroke-width="7" stroke-linecap="round" stroke-linejoin="round"/><polyline points="392,130 414,210 418,272" fill="none" stroke="#1F3A5F" stroke-width="7" stroke-linecap="round" stroke-linejoin="round"/><polyline points="316,250 312,360 314,460" fill="none" stroke="#1F3A5F" stroke-width="7" stroke-linecap="round" stroke-linejoin="round"/><polyline points="364,250 368,360 366,460" fill="none" stroke="#1F3A5F" stroke-width="7" stroke-linecap="round" stroke-linejoin="round"/><circle cx="640" cy="70" r="28" fill="none" stroke="#1F3A5F" stroke-width="7"/><line x1="640" y1="98" x2="640" y2="114" stroke="#1F3A5F" stroke-width="7" stroke-linecap="round"/><path d="M 588 126 L 692 126 L 680 250 L 600 250 Z" fill="none" stroke="#1F3A5F" stroke-width="7" stroke-linecap="round" stroke-linejoin="round"/><polyline points="588,130 566,210 562,272" fill="none" stroke="#1F3A5F" stroke-width="7" stroke-linecap="round" stroke-linejoin="round"/><polyline points="692,130 714,210 718,272" fill="none" stroke="#1F3A5F" stroke-width="7" stroke-linecap="round" stroke-linejoin="round"/><polyline points="616,250 612,360 614,460" fill="none" stroke="#1F3A5F" stroke-width="7" stroke-linecap="round" stroke-linejoin="round"/><polyline points="664,250 668,360 666,460" fill="none" stroke="#1F3A5F" stroke-width="7" stroke-linecap="round" stroke-linejoin="round"/><circle cx="320" cy="62" r="20" fill="#E9C46A" opacity="0.2975"/><circle cx="320" cy="62" r="9.0" fill="#E9C46A" opacity="0.85"/><circle cx="386" cy="132" r="24" fill="#E9C46A" opacity="0.2975"/><circle cx="386" cy="132" r="10.8" fill="#E9C46A" opacity="0.85"/><circle cx="294" cy="132" r="24" fill="#E9C46A" opacity="0.2975"/><circle cx="294" cy="132" r="10.8" fill="#E9C46A" opacity="0.85"/><circle cx="368" cy="360" r="22" fill="#E9C46A" opacity="0.2975"/><circle cx="368" cy="360" r="9.9" fill="#E9C46A" opacity="0.85"/><circle cx="640" cy="106" r="22" fill="#E76F51" opacity="0.2975"/><circle cx="640" cy="106" r="9.9" fill="#E76F51" opacity="0.85"/><circle cx="640" cy="170" r="28" fill="#E76F51" opacity="0.2975"/><circle cx="640" cy="170" r="12.6" fill="#E76F51" opacity="0.85"/><circle cx="640" cy="236" r="34" fill="#E76F51" opacity="0.2975"/><circle cx="640" cy="236" r="15.3" fill="#E76F51" opacity="0.85"/><circle cx="612" cy="370" r="22" fill="#E76F51" opacity="0.2975"/><circle cx="612" cy="370" r="9.9" fill="#E76F51" opacity="0.85"/><circle cx="120" cy="120" r="12" fill="#D7EBE8"/><circle cx="870" cy="90" r="9" fill="#2A9D8F"/><circle cx="850" cy="440" r="13" fill="#D7EBE8"/></svg>